<svg width="332" height="356" viewBox="0 0 332 356" fill="none" xmlns="http://www.w3.org/2000/svg">
<path d="M208.348 97.716C235.873 -22.1576 224.981 -6.84334 172.177 125.086C154.597 20.6234 143.258 -57.4682 145.439 98.348C77.3544 -45.2548 80.4098 -19.501 121.375 112.679C23.2094 2.61957 23.4196 12.6499 103.672 134.262C-25.7121 59.776 -24.2447 66.6339 86.7652 150.072C-39.6267 113.841 -4.62687 130.585 107.94 178.003C16.2621 177.564 45.9404 182.123 127.121 191.93C-20.4568 258.454 -36.9455 270.192 74.8078 236.686C-54.7931 335.657 10.1958 299.81 120.544 239.567C33.7307 367.827 55.3838 372.027 131.655 276.407C108.972 383.7 119.201 367.766 167.776 238.732C213.436 381.906 219.56 386.974 200.708 281.036C258.36 385.03 240.426 335.593 190.528 209.019C227.147 229.992 231.931 230.525 198.882 201.836C271.861 223.543 280.482 224.248 221.351 199.054C287.648 200.105 295.611 198.491 208.647 187.983C366.501 110.078 365.193 104.065 232.312 148.099C318.065 60.91 332.301 41.6963 216.486 131.203C295.003 -20.0602 281.999 -8.40729 208.348 97.716Z" fill="#171717" stroke="#B3B3B3" stroke-width="3"/>
</svg>
