<svg width="202" height="440" viewBox="0 0 202 440" fill="none" xmlns="http://www.w3.org/2000/svg">
<path d="M166.458 145.669C141.578 -10.2225 156.4 28.4723 202.324 182.904L205.657 362.519C186.945 431.781 173.309 496.818 181.001 346.132C96.7261 448.681 113.58 408.776 169.297 298.622C25.7933 325.517 -2.99786 324.707 103.912 274.569C-22.4195 267.868 1.23212 262.179 152.156 249.81C26.6566 226.68 -36.8333 214.355 136.707 219.215L134.631 217.886C16.7085 142.385 -50.0474 99.644 102.245 184.761C-37.8439 34.5605 -30.8272 33.0494 122.193 166.143C18.2931 7.19665 -3.69623 -31.6438 135.353 146.246C56.8072 -66.6212 81.8162 -24.0775 166.458 145.669Z" stroke="#B3B3B3" stroke-width="3"/>
</svg>
