<svg width="343" height="203" viewBox="0 0 343 203" fill="none" xmlns="http://www.w3.org/2000/svg">
<path d="M124.625 130.057L40.0794 79.8445V36.864H287.942V89.1431L165.042 91.0029L124.625 130.057Z" fill="#212121"/>
<path d="M343 203L326.091 88.5232L284.024 127.371L343 203Z" fill="#2D2D2D"/>
<path d="M234.328 203L162.155 154.027V123.651L285.055 127.991L343 203H234.328Z" fill="#272727"/>
<path d="M63.5123 0H262.133L326.222 66.2478V88.8125L284.362 129.313H163.111V155.639L122.694 155.35V129.313L163.111 88.8125H285.805V40.5008H40.4169V80.7123H0V65.6692L63.5123 0ZM122.694 164.896H163.111V202.793H122.694V164.896Z" fill="#C2C2C2"/>
</svg>
