<svg width="32" height="32" viewBox="0 0 32 32" fill="none" xmlns="http://www.w3.org/2000/svg">
<rect width="32" height="32" rx="16" fill="#D9D9D9"/>
<path d="M13.7216 18.9091V18.8239C13.7311 17.9195 13.8258 17.1998 14.0057 16.6648C14.1856 16.1297 14.4413 15.6965 14.7727 15.3651C15.1042 15.0336 15.5019 14.7282 15.9659 14.4489C16.2453 14.2784 16.4962 14.0772 16.7188 13.8452C16.9413 13.6084 17.1165 13.3362 17.2443 13.0284C17.3769 12.7206 17.4432 12.3797 17.4432 12.0057C17.4432 11.5417 17.3343 11.1392 17.1165 10.7983C16.8987 10.4574 16.6075 10.1946 16.2429 10.0099C15.8783 9.82528 15.4735 9.73295 15.0284 9.73295C14.6402 9.73295 14.2661 9.81345 13.9062 9.97443C13.5464 10.1354 13.2457 10.3887 13.0043 10.7344C12.7628 11.08 12.6231 11.5322 12.5852 12.0909H10.7955C10.8333 11.286 11.0417 10.5971 11.4205 10.0241C11.804 9.45123 12.3082 9.01326 12.9332 8.71023C13.563 8.4072 14.2614 8.25568 15.0284 8.25568C15.8617 8.25568 16.5862 8.4214 17.2017 8.75284C17.822 9.08428 18.3002 9.53883 18.6364 10.1165C18.9773 10.6941 19.1477 11.3523 19.1477 12.0909C19.1477 12.6117 19.0672 13.0829 18.9062 13.5043C18.75 13.9257 18.5227 14.3021 18.2244 14.6335C17.9309 14.965 17.5758 15.2585 17.1591 15.5142C16.7424 15.7746 16.4086 16.0492 16.1577 16.3381C15.9067 16.6222 15.7244 16.9607 15.6108 17.3537C15.4972 17.7467 15.4356 18.2367 15.4261 18.8239V18.9091H13.7216ZM14.6307 23.1136C14.2803 23.1136 13.9796 22.9882 13.7287 22.7372C13.4777 22.4863 13.3523 22.1856 13.3523 21.8352C13.3523 21.4848 13.4777 21.1842 13.7287 20.9332C13.9796 20.6823 14.2803 20.5568 14.6307 20.5568C14.9811 20.5568 15.2817 20.6823 15.5327 20.9332C15.7836 21.1842 15.9091 21.4848 15.9091 21.8352C15.9091 22.0672 15.8499 22.2803 15.7315 22.4744C15.6179 22.6686 15.464 22.8248 15.2699 22.9432C15.0805 23.0568 14.8674 23.1136 14.6307 23.1136Z" fill="black"/>
</svg>
